#N canvas 49 80 1280 920 16;
#X obj 42 196 netsend;
#X floatatom 22 246 5 0 0 0 - - -, f 5;
#X obj 782 51 osc~;
#X obj 827 284 dac~;
#X obj 629 282 snapshot~;
#X floatatom 571 347 5 0 0 0 - - -, f 5;
#X obj 514 145 trigger bang;
#X obj 498 284 print;
#X msg 109 144 send \$1;
#X obj 148 185 print;
#X obj 548 68 metro 100;
#X msg 110 108 disconnect;
#X obj 785 131 *~ 1;
#X msg 109 34 connect 127.0.0.1 17784;
#X obj 51 320 print;
#X floatatom 295 316 5 0 0 0 - - -, f 5;
#X symbolatom 164 316 10 0 0 0 - - -, f 10;
#X obj 214 274 unpack s f;
#X msg 108 72 send puredata#######I'm PD!;
#X connect 0 0 1 0;
#X connect 0 1 14 0;
#X connect 0 1 17 0;
#X connect 2 0 12 0;
#X connect 4 0 5 0;
#X connect 6 0 4 0;
#X connect 6 0 7 0;
#X connect 8 0 0 0;
#X connect 8 0 9 0;
#X connect 10 0 6 0;
#X connect 11 0 0 0;
#X connect 12 0 3 0;
#X connect 12 0 3 1;
#X connect 12 0 4 0;
#X connect 13 0 0 0;
#X connect 15 0 2 0;
#X connect 15 0 10 0;
#X connect 17 0 16 0;
#X connect 17 1 15 0;
#X connect 18 0 0 0;
